<svg width="51" height="36" viewBox="0 0 51 36" fill="none" xmlns="http://www.w3.org/2000/svg">
<path d="M20.5 25.5L33.475 18L20.5 10.5V25.5ZM49.4 5.925C49.725 7.1 49.95 8.675 50.1 10.675C50.275 12.675 50.35 14.4 50.35 15.9L50.5 18C50.5 23.475 50.1 27.5 49.4 30.075C48.775 32.325 47.325 33.775 45.075 34.4C43.9 34.725 41.75 34.95 38.45 35.1C35.2 35.275 32.225 35.35 29.475 35.35L25.5 35.5C15.025 35.5 8.5 35.1 5.925 34.4C3.675 33.775 2.225 32.325 1.6 30.075C1.275 28.9 1.05 27.325 0.9 25.325C0.725 23.325 0.65 21.6 0.65 20.1L0.5 18C0.5 12.525 0.9 8.5 1.6 5.925C2.225 3.675 3.675 2.225 5.925 1.6C7.1 1.275 9.25 1.05 12.55 0.9C15.8 0.725 18.775 0.65 21.525 0.65L25.5 0.5C35.975 0.5 42.5 0.9 45.075 1.6C47.325 2.225 48.775 3.675 49.4 5.925Z" fill="#F9F9F9"/>
</svg>
