<svg width="38" height="39" viewBox="0 0 38 39" fill="none" xmlns="http://www.w3.org/2000/svg">
<path d="M11.125 0.75H26.875C32.875 0.75 37.75 5.625 37.75 11.625V27.375C37.75 30.2592 36.6042 33.0253 34.5648 35.0648C32.5253 37.1042 29.7592 38.25 26.875 38.25H11.125C5.125 38.25 0.25 33.375 0.25 27.375V11.625C0.25 8.74077 1.39576 5.97467 3.43521 3.93521C5.47467 1.89576 8.24077 0.75 11.125 0.75ZM10.75 4.5C8.95979 4.5 7.2429 5.21116 5.97703 6.47703C4.71116 7.7429 4 9.45979 4 11.25V27.75C4 31.4812 7.01875 34.5 10.75 34.5H27.25C29.0402 34.5 30.7571 33.7888 32.023 32.523C33.2888 31.2571 34 29.5402 34 27.75V11.25C34 7.51875 30.9812 4.5 27.25 4.5H10.75ZM28.8437 7.3125C29.4653 7.3125 30.0615 7.55943 30.501 7.99897C30.9406 8.43851 31.1875 9.03465 31.1875 9.65625C31.1875 10.2779 30.9406 10.874 30.501 11.3135C30.0615 11.7531 29.4653 12 28.8437 12C28.2221 12 27.626 11.7531 27.1865 11.3135C26.7469 10.874 26.5 10.2779 26.5 9.65625C26.5 9.03465 26.7469 8.43851 27.1865 7.99897C27.626 7.55943 28.2221 7.3125 28.8437 7.3125ZM19 10.125C21.4864 10.125 23.871 11.1127 25.6291 12.8709C27.3873 14.629 28.375 17.0136 28.375 19.5C28.375 21.9864 27.3873 24.371 25.6291 26.1291C23.871 27.8873 21.4864 28.875 19 28.875C16.5136 28.875 14.129 27.8873 12.3709 26.1291C10.6127 24.371 9.625 21.9864 9.625 19.5C9.625 17.0136 10.6127 14.629 12.3709 12.8709C14.129 11.1127 16.5136 10.125 19 10.125ZM19 13.875C17.5082 13.875 16.0774 14.4676 15.0225 15.5225C13.9676 16.5774 13.375 18.0082 13.375 19.5C13.375 20.9918 13.9676 22.4226 15.0225 23.4775C16.0774 24.5324 17.5082 25.125 19 25.125C20.4918 25.125 21.9226 24.5324 22.9775 23.4775C24.0324 22.4226 24.625 20.9918 24.625 19.5C24.625 18.0082 24.0324 16.5774 22.9775 15.5225C21.9226 14.4676 20.4918 13.875 19 13.875Z" fill="#F9F9F9"/>
</svg>
