<svg width="32" height="32" viewBox="0 0 32 32" fill="none" xmlns="http://www.w3.org/2000/svg">
<path d="M13.97 8.10256C13.97 8.10256 4.34996 10.7776 3.59996 11.8101C2.84996 12.8426 1.55746 14.7551 1.43996 18.8501C1.34496 22.1351 3.17746 30.5826 12.185 30.8626C21.3825 31.1501 24.8075 25.0901 26.45 21.3376C27.93 17.9526 27.905 14.0651 28.8425 12.2801C29.78 10.4951 30.625 8.94756 30.58 6.93006C30.535 4.91256 29.7825 3.17506 28.4675 2.33006C27.1525 1.48506 26.0275 1.62506 25.465 1.48506C24.9025 1.34506 13.97 8.10256 13.97 8.10256Z" fill="#757E40"/>
<path d="M15.6576 4.725C11.6676 6.3675 6.36507 7.915 3.83257 11.4825C1.54507 14.7025 0.782566 18.7075 3.88007 23.4C6.70757 27.685 14.2451 29.5125 19.8826 25.465C25.0451 21.7575 25.5126 16.315 27.0626 12.7C28.6126 9.085 31.8726 4.335 27.9551 2C23.7776 -0.484998 18.8101 3.4275 15.6576 4.725Z" fill="#AFB42A"/>
<path d="M27.0625 3.03518C25.165 1.94018 22.745 2.42518 20.07 3.74018C17.395 5.05518 15.33 6.04018 14.3925 6.36768C13.4525 6.69518 5.4675 9.62018 3.9275 13.5002C2.66 16.6902 2.99 20.8677 6.32 23.9177C9.65 26.9677 18.0525 26.7802 21.29 22.1802C24.5275 17.5802 24.6675 13.8752 25.3725 12.2327C26.0775 10.5902 27.6125 8.18518 28.0475 6.88268C28.5625 5.33518 28.2825 3.74018 27.0625 3.03518Z" fill="#FFF69D"/>
<path d="M17.8626 11.95C16.3601 10.1675 10.6351 10.73 8.66507 13.545C6.69507 16.36 7.51507 18.6475 8.47757 19.88C9.65007 21.3825 12.8426 22.7425 15.7501 20.725C18.6576 18.7075 19.5101 13.905 17.8626 11.95Z" fill="#855C52"/>
<path d="M11.8301 15.1551C11.0901 16.2401 11.4601 17.9901 10.1876 18.0726C8.91512 18.1551 8.17512 16.1126 9.07762 14.4026C10.0526 12.5576 12.3626 11.7351 13.0201 12.6101C13.6801 13.4876 12.5326 14.1251 11.8301 15.1551Z" fill="#D67659"/>
</svg>
