<svg width="38" height="42" viewBox="0 0 38 42" fill="none" xmlns="http://www.w3.org/2000/svg">
<path d="M34.0751 21.9C33.3915 21.522 32.6684 21.2202 31.9189 21C32.6684 20.7798 33.3915 20.478 34.0751 20.1C35.6267 19.2049 36.7591 17.7301 37.2232 16.0001C37.6874 14.2701 37.4453 12.4265 36.5501 10.875C35.655 9.32348 34.1803 8.19109 32.4502 7.72694C30.7202 7.26279 28.8767 7.50489 27.3251 8.4C26.6584 8.80179 26.0362 9.27318 25.4689 9.80625C25.6439 9.0496 25.7382 8.27653 25.7501 7.5C25.7501 5.70979 25.039 3.9929 23.7731 2.72703C22.5072 1.46116 20.7904 0.75 19.0001 0.75C17.2099 0.75 15.493 1.46116 14.2272 2.72703C12.9613 3.9929 12.2502 5.70979 12.2502 7.5C12.2621 8.27653 12.3564 9.0496 12.5314 9.80625C11.9641 9.27318 11.3419 8.80179 10.6752 8.4C9.12363 7.50489 7.28009 7.26279 5.55006 7.72694C3.82004 8.19109 2.34526 9.32348 1.45015 10.875C0.555047 12.4265 0.31294 14.2701 0.777093 16.0001C1.24125 17.7301 2.37364 19.2049 3.92515 20.1C4.60878 20.478 5.33187 20.7798 6.0814 21C5.33187 21.2202 4.60878 21.522 3.92515 21.9C2.37364 22.7951 1.24125 24.2699 0.777093 25.9999C0.31294 27.7299 0.555047 29.5735 1.45015 31.125C2.34526 32.6765 3.82004 33.8089 5.55006 34.2731C7.28009 34.7372 9.12363 34.4951 10.6752 33.6C11.3419 33.1982 11.9641 32.7268 12.5314 32.1937C12.3564 32.9504 12.2621 33.7235 12.2502 34.5C12.2502 36.2902 12.9613 38.0071 14.2272 39.273C15.493 40.5388 17.2099 41.25 19.0001 41.25C20.7904 41.25 22.5072 40.5388 23.7731 39.273C25.039 38.0071 25.7501 36.2902 25.7501 34.5C25.7382 33.7235 25.6439 32.9504 25.4689 32.1937C26.0362 32.7268 26.6584 33.1982 27.3251 33.6C28.8767 34.4951 30.7202 34.7372 32.4502 34.2731C34.1803 33.8089 35.655 32.6765 36.5501 31.125C37.4453 29.5735 37.6874 27.7299 37.2232 25.9999C36.7591 24.2699 35.6267 22.7951 34.0751 21.9ZM19.0001 25.5C18.1101 25.5 17.2401 25.2361 16.5001 24.7416C15.7601 24.2471 15.1833 23.5443 14.8427 22.7221C14.5021 21.8998 14.413 20.995 14.5866 20.1221C14.7602 19.2492 15.1888 18.4474 15.8182 17.818C16.4475 17.1887 17.2493 16.7601 18.1222 16.5865C18.9952 16.4128 19.9 16.5019 20.7222 16.8425C21.5445 17.1831 22.2473 17.7599 22.7418 18.4999C23.2362 19.24 23.5001 20.11 23.5001 21C23.4952 22.192 23.0195 23.3337 22.1767 24.1765C21.3338 25.0194 20.1921 25.4951 19.0001 25.5Z" fill="#D0DDFF"/>
</svg>
