<svg width="69" height="31" viewBox="0 0 69 31" fill="none" xmlns="http://www.w3.org/2000/svg">
<path d="M63.378 18.516L63.6525 19.9907L63.378 18.516ZM68.1422 18.7078C68.6109 18.0247 68.4371 17.091 67.7539 16.6224L56.6219 8.98511C55.9388 8.51645 55.0051 8.6903 54.5364 9.37342C54.0678 10.0565 54.2416 10.9902 54.9247 11.4589L64.8199 18.2476L58.0312 28.1427C57.5625 28.8258 57.7364 29.7595 58.4195 30.2282C59.1026 30.6969 60.0363 30.523 60.505 29.8399L68.1422 18.7078ZM63.6525 19.9907L67.1799 19.3339L66.6308 16.3846L63.1034 17.0414L63.6525 19.9907ZM0.799545 3.15661C18.1305 17.977 41.2342 24.1649 63.6525 19.9907L63.1034 17.0414C41.5763 21.0497 19.3912 15.1078 2.74928 0.876589L0.799545 3.15661Z" fill="#31B7AB"/>
</svg>
