<svg width="39" height="39" viewBox="0 0 39 39" fill="none" xmlns="http://www.w3.org/2000/svg">
<path d="M13.95 37.3875C15.75 37.9312 17.5687 38.25 19.5 38.25C24.4728 38.25 29.2419 36.2746 32.7582 32.7582C36.2746 29.2419 38.25 24.4728 38.25 19.5C38.25 17.0377 37.765 14.5995 36.8227 12.3247C35.8805 10.0498 34.4993 7.98285 32.7582 6.24175C31.0171 4.50065 28.9502 3.11953 26.6753 2.17726C24.4005 1.23498 21.9623 0.75 19.5 0.75C17.0377 0.75 14.5995 1.23498 12.3247 2.17726C10.0498 3.11953 7.98285 4.50065 6.24175 6.24175C2.72544 9.75805 0.75 14.5272 0.75 19.5C0.75 27.4687 5.75625 34.3125 12.825 37.0125C12.6562 35.55 12.4875 33.1312 12.825 31.4625L14.9812 22.2C14.9812 22.2 14.4375 21.1125 14.4375 19.3875C14.4375 16.8 16.05 14.8687 17.8875 14.8687C19.5 14.8687 20.25 16.05 20.25 17.5687C20.25 19.1812 19.1812 21.4875 18.6375 23.7C18.3187 25.5375 19.6125 27.15 21.4875 27.15C24.825 27.15 27.4125 23.5875 27.4125 18.5625C27.4125 14.0625 24.1875 10.9875 19.5562 10.9875C14.2687 10.9875 11.1562 14.925 11.1562 19.0687C11.1562 20.6812 11.6812 22.3125 12.5437 23.3812C12.7125 23.4937 12.7125 23.6437 12.6562 23.925L12.1125 25.9687C12.1125 26.2875 11.9062 26.4 11.5875 26.175C9.1875 25.125 7.8 21.7125 7.8 18.9562C7.8 13.0312 12 7.65 20.1 7.65C26.55 7.65 31.575 12.2812 31.575 18.4312C31.575 24.8812 27.5812 30.0562 21.8625 30.0562C20.0437 30.0562 18.2625 29.0812 17.625 27.9375L16.3687 32.3812C15.9375 33.9937 14.7562 36.15 13.95 37.4437V37.3875Z" fill="#F9F9F9"/>
</svg>
