<svg width="30" height="35" viewBox="0 0 30 35" fill="none" xmlns="http://www.w3.org/2000/svg">
<path d="M23.6248 5.9125C22.3431 4.44929 21.6368 2.57019 21.6373 0.625H15.8436V23.875C15.7989 25.1332 15.2677 26.3249 14.3619 27.1993C13.456 28.0736 12.2463 28.5623 10.9873 28.5625C8.32481 28.5625 6.11231 26.3875 6.11231 23.6875C6.11231 20.4625 9.22481 18.0437 12.4311 19.0375V13.1125C5.96231 12.25 0.299805 17.275 0.299805 23.6875C0.299805 29.9312 5.47481 34.375 10.9686 34.375C16.8561 34.375 21.6373 29.5938 21.6373 23.6875V11.8938C23.9867 13.581 26.8074 14.4862 29.6998 14.4813V8.6875C29.6998 8.6875 26.1748 8.85625 23.6248 5.9125Z" fill="#F9F9F9"/>
</svg>
