<svg width="152" height="122" viewBox="0 0 152 122" fill="none" xmlns="http://www.w3.org/2000/svg">
<path d="M145.027 0.0510254C141.664 1.62376 138.269 3.21251 134.905 4.82048C148.327 42.0056 134.553 79.7384 108.672 98.6048C95.2828 108.374 78.5946 113.083 60.9774 109.976C43.7446 106.901 25.7206 96.3306 9.04515 76.247C6.31289 78.1048 3.58062 79.9626 0.851562 81.8525C4.67929 87.0095 15.3649 100.238 31.6047 110.232C52.0086 122.82 80.036 129.835 113.701 107.093C143.65 86.8493 151.017 59.6228 151.145 37.0728C151.241 20.0962 147.109 5.99923 145.027 0.0510254ZM129.684 7.32853C109.729 13.8501 96.4039 21.3454 82.5024 30.0899C81.7336 30.7306 82.5664 32.7806 84.3922 32.6845L134.329 34.6704C134.393 25.7978 132.92 16.5728 129.684 7.32853ZM117.192 21.5376L118.281 27.1751L105.373 29.7056L104.284 24.0681L117.192 21.5376ZM85.5453 38.5142C83.175 38.5462 81.9899 40.7564 84.0078 43.415L122.285 75.7665C128.82 65.6126 133.048 53.4728 134.073 40.436L85.5453 38.5142ZM97.6531 42.5501L109.537 46.9704L107.551 52.3517L95.6672 47.9314L97.6531 42.5501ZM60.6891 44.1196C60.4008 44.1196 60.0805 44.2157 59.7282 44.4079C44.4172 53.3446 27.5688 62.3454 13.8659 73.0118C23.6482 84.7353 33.7188 92.8072 43.6805 97.9642L62.4829 47.9314C63.4438 46.4579 62.3547 44.0876 60.6891 44.1196ZM78.6907 47.1306C76.993 47.1306 75.9039 49.2767 76.1282 49.8853L90.4781 101.872C95.7313 99.9501 100.696 97.2595 105.277 93.9283C110.37 90.2126 114.982 85.6642 118.922 80.5072L80.1961 47.7071C79.6516 47.2907 79.1391 47.1306 78.6907 47.1306ZM68.8571 49.3728C68.4727 49.4048 68.0563 49.6931 67.7039 50.4939L48.9016 100.399C53.3219 102.224 57.7102 103.506 62.0024 104.274C69.9782 105.684 77.6977 105.363 84.9688 103.57L70.4266 50.8462C70.1703 50.1415 69.5297 49.3728 68.8571 49.3728ZM48.0688 57.3165L52.4891 61.0322L41.9508 73.4282L37.5305 69.7126L48.0688 57.3165ZM89.9016 62.8579L96.6922 71.3462L92.2078 74.9337L85.4172 66.4454L89.9016 62.8579ZM64.725 70.6095L70.4907 70.8017L69.9782 84.415L64.2125 84.2228L64.725 70.6095Z" fill="#FFB658"/>
</svg>
