<svg width="35" height="45" viewBox="0 0 35 45" fill="none" xmlns="http://www.w3.org/2000/svg">
<path d="M33.8036 2.76658C34.5031 2.32277 34.7104 1.39591 34.2666 0.696401C33.8228 -0.00311269 32.8959 -0.210397 32.1964 0.233419L33.8036 2.76658ZM30.6439 2.99486L29.8403 1.72828L30.6439 2.99486ZM11.8292 41.8592L10.3373 42.0145L11.8292 41.8592ZM11.0548 44.6648C11.6981 45.1868 12.6428 45.0884 13.1648 44.4452L21.6712 33.9623C22.1932 33.319 22.0949 32.3744 21.4516 31.8524C20.8083 31.3304 19.8637 31.4287 19.3417 32.072L11.7804 41.3901L2.46228 33.8288C1.819 33.3068 0.874354 33.4051 0.352358 34.0484C-0.169639 34.6917 -0.0713182 35.6363 0.571963 36.1583L11.0548 44.6648ZM32.1964 0.233419L29.8403 1.72828L31.4475 4.26144L33.8036 2.76658L32.1964 0.233419ZM10.3373 42.0145L10.5081 43.6553L13.4919 43.3447L13.3212 41.7039L10.3373 42.0145ZM29.8403 1.72828C16.2219 10.3687 8.66765 25.973 10.3373 42.0145L13.3212 41.7039C11.7694 26.7948 18.7904 12.2919 31.4475 4.26144L29.8403 1.72828Z" fill="#D5B6F0"/>
</svg>
