<svg width="82" height="82" viewBox="0 0 82 82" fill="none" xmlns="http://www.w3.org/2000/svg">
<path d="M31.1664 54.7991L25.8877 65.6961L22.1272 54.1392L10.25 52.4992L19.9555 45.337L17.9695 33.5496L27.6558 40.558L34.5489 37.0089L38.3799 35.0358L37.3677 38.0596L34.581 46.4069L43.2743 54.9016L31.1664 54.7991Z" fill="#FCC21B"/>
<path d="M53.9791 19.9619C51.7561 21.2623 49.5908 22.6653 47.4575 24.1195C48.2071 24.5359 48.8156 25.2342 49.1744 26.3297C49.2833 26.6436 49.3153 26.9703 49.3153 27.3034C50.5581 26.3745 51.801 25.4456 53.0758 24.5679C55.2924 23.0433 57.5538 21.5826 59.8536 20.1797C62.5634 18.5333 65.3181 16.9701 68.1241 15.4903C69.6744 14.6703 71.2375 13.8759 72.8134 13.1008C73.217 12.9086 73.6206 12.71 74.0242 12.5178C74.2164 12.4281 74.4022 12.3192 74.6008 12.2423C74.8442 12.1526 76.8109 11.3583 76.2087 10.9354C75.9269 10.7304 75.4977 10.8393 75.1837 10.8842C74.793 10.9483 74.415 11.0636 74.0498 11.1661C73.3451 11.3583 72.6405 11.5697 71.9422 11.7939C70.315 12.3128 68.7134 12.8893 67.1247 13.5172C65.0683 14.3243 63.0503 15.2148 61.058 16.1758C58.6556 17.3481 56.2917 18.6101 53.9791 19.9619Z" fill="#40C0E7"/>
<path d="M40.0646 45.0808L43.0692 36.0736L44.8245 30.8205L45.5676 28.5847C45.7406 28.053 45.5804 27.4764 45.164 27.1112C44.7412 26.7461 44.1454 26.682 43.6457 26.9319L43.1653 27.1753L33.415 32.2042L28.0785 34.9589L14.0104 24.7794C13.5684 24.4591 12.9598 24.4334 12.4857 24.7281C12.0181 25.0164 11.7682 25.5737 11.8579 26.1183L14.7471 43.2358L0.653396 53.6331C0.204959 53.9663 -4.12464e-05 54.53 0.140896 55.0681C0.275427 55.6127 0.723865 56.0099 1.28121 56.0867L18.5076 58.4699L23.9721 75.2478C24.1451 75.7731 24.6256 76.1511 25.1765 76.1896C25.7339 76.228 26.2592 75.9205 26.5026 75.4208L34.1517 59.6102L51.7112 59.7575C52.275 59.7575 52.7746 59.4244 52.986 58.9119C53.1974 58.3994 53.0757 57.8036 52.6849 57.4128L40.0646 45.0808ZM31.1664 54.7991L25.894 65.6961L22.1271 54.1392L10.25 52.4992L19.9554 45.337L17.9631 33.5495L27.6557 40.558L34.5489 37.0025L38.3734 35.0294L37.3612 38.0595L34.5745 46.4069L43.2742 54.9016L31.1664 54.7991Z" fill="#F79329"/>
<path d="M26.3362 28.1299C26.6501 28.4566 26.9191 28.8026 27.3099 29.046C27.4957 29.1613 27.6559 29.2254 27.8096 29.2446C28.1876 29.2958 28.4631 29.0588 28.8474 28.7001C29.6354 27.9633 30.449 27.2458 31.269 26.5476C32.531 25.4713 33.8187 24.4335 35.132 23.4213C36.8681 22.0824 38.6362 20.7948 40.4427 19.5583C42.6593 18.0273 44.9207 16.5666 47.2206 15.1701C49.9304 13.5237 52.6851 11.9669 55.4846 10.4807C57.0414 9.66711 58.6045 8.86633 60.1804 8.09758C60.5776 7.89898 60.9812 7.7068 61.3848 7.51461C61.577 7.41852 61.7628 7.31602 61.9614 7.23914C62.2048 7.14305 64.1651 6.35508 63.5693 5.93227C63.2875 5.72727 62.8582 5.83617 62.5443 5.88102C62.1535 5.94508 61.782 6.05399 61.404 6.16289C60.6929 6.35508 59.9946 6.56649 59.2964 6.7907C57.6756 7.3032 56.0676 7.88617 54.4789 8.50758C52.4224 9.32117 50.4045 10.2116 48.4121 11.1662C46.0034 12.3321 43.6395 13.6005 41.3268 14.9459C38.6298 16.5282 35.9968 18.2259 33.4407 20.026C31.2177 21.5891 29.0524 23.2291 26.9448 24.946C26.5668 25.2535 26.1888 25.5674 25.8045 25.8813C25.4585 26.1696 25.0037 26.4963 25.3432 26.9832C25.6443 27.3996 25.9838 27.7647 26.3362 28.1299ZM81.7823 20.3463C81.4876 20.1541 81.0648 20.2823 80.7573 20.3463C80.3729 20.4232 80.0078 20.5577 79.6362 20.6858C78.9379 20.9165 78.2461 21.1599 77.5606 21.4162C75.9654 22.0119 74.3895 22.6718 72.8328 23.3765C70.8212 24.2862 68.8481 25.2791 66.9134 26.3362C64.5623 27.6174 62.2625 29.0012 60.0203 30.4618C57.4065 32.1722 54.8632 34.0044 52.3968 35.9263C50.2577 37.5991 48.1766 39.3448 46.1571 41.1602C45.7856 41.4869 45.4268 41.8201 45.0617 42.1532C44.7285 42.4607 44.2929 42.8066 44.6581 43.2743C44.9656 43.6715 45.3307 44.0238 45.6959 44.3633C46.029 44.6772 46.3045 45.004 46.7145 45.2282C46.9003 45.3371 47.0668 45.3883 47.2142 45.4075C47.5921 45.4396 47.8612 45.1833 48.2263 44.8118C48.9759 44.0366 49.751 43.2807 50.539 42.5375C51.7434 41.3972 52.9862 40.2954 54.2418 39.2255C55.9139 37.8033 57.6179 36.4324 59.354 35.0999C61.4937 33.4663 63.6846 31.8904 65.9076 30.3849C68.5278 28.604 71.2056 26.9063 73.9347 25.2919C75.4401 24.3951 76.9648 23.5302 78.5023 22.6782C78.8931 22.4668 79.2903 22.249 79.6811 22.0376C79.8604 21.9351 80.0526 21.8198 80.2384 21.7365C80.4754 21.6276 82.4037 20.7435 81.7823 20.3463Z" fill="#40C0E7"/>
</svg>
